<svg width="50" height="30" viewBox="0 0 50 30" fill="none" xmlns="http://www.w3.org/2000/svg">
<path d="M26.951 28.8897L49.2012 6.63905C49.7163 6.12442 50 5.43744 50 4.70492C50 3.97241 49.7163 3.28542 49.2012 2.77079L47.563 1.13219C46.4956 0.0659375 44.7606 0.0659375 43.6948 1.13219L25.0104 19.8166L6.30523 1.11146C5.7902 0.596827 5.10362 0.312683 4.37151 0.312683C3.63859 0.312683 2.95201 0.596827 2.43657 1.11146L0.798775 2.75006C0.283737 3.2651 0 3.95168 0 4.68419C0 5.41671 0.283737 6.10369 0.798775 6.61832L23.0693 28.8897C23.586 29.4055 24.2758 29.6889 25.0091 29.6872C25.7453 29.6889 26.4347 29.4055 26.951 28.8897Z" fill="url(#paint0_linear)"/>
<defs>
<linearGradient id="paint0_linear" x1="50" y1="0.312683" x2="24.3414" y2="43.9876" gradientUnits="userSpaceOnUse">
<stop stop-color="#FF8D27"/>
<stop offset="1" stop-color="#8A2DE1"/>
</linearGradient>
</defs>
</svg>
