<svg width="32" height="31" viewBox="0 0 32 31" fill="none" xmlns="http://www.w3.org/2000/svg">
<path d="M15.995 0.714284C7.47712 0.714284 0.566406 7.625 0.566406 16.1429C0.566406 22.9531 4.98605 28.7388 11.1133 30.7879C11.8968 30.9286 12.178 30.4464 12.178 30.0446C12.178 29.6629 12.1579 28.4576 12.1579 27.1719C12.1579 27.1719 7.85882 28.096 6.9548 25.3437C6.9548 25.3437 6.25167 23.5558 5.24721 23.0938C5.24721 23.0938 3.84096 22.1295 5.34766 22.1496C5.34766 22.1496 6.87444 22.2701 7.71819 23.7366C9.06417 26.1071 11.3142 25.4241 12.1981 25.0223C12.3387 24.0379 12.7405 23.3549 13.1825 22.9531C9.74721 22.5714 6.15123 21.2455 6.15123 15.3393C6.15123 13.6518 6.75391 12.2857 7.73828 11.2009C7.57757 10.7991 7.05525 9.23214 7.899 7.10268C9.18471 6.70089 12.1378 8.68973 12.1378 8.68973C13.3633 8.34821 14.6892 8.16741 15.995 8.16741C17.3008 8.16741 18.6267 8.34821 19.8521 8.68973C19.8521 8.68973 22.8052 6.70089 24.091 7.10268C24.9347 9.23214 24.4124 10.7991 24.2517 11.2009C25.236 12.2857 25.8387 13.6518 25.8387 15.3393C25.8387 21.2656 22.2227 22.5714 18.7874 22.9531C19.3499 23.4353 19.832 24.3594 19.832 25.8058C19.832 27.875 19.8119 29.5424 19.8119 30.0446C19.8119 30.4464 20.0932 30.9286 20.8767 30.7879C27.0039 28.7388 31.4236 22.9531 31.4236 16.1429C31.4236 7.625 24.5128 0.714284 15.995 0.714284ZM6.41239 22.8728C6.37221 22.9531 6.25167 22.9732 6.15123 22.9129C6.03069 22.8527 5.97042 22.7522 6.0106 22.6719C6.05078 22.6116 6.15123 22.5915 6.27176 22.6317C6.3923 22.692 6.45257 22.7924 6.41239 22.8728ZM7.03516 23.5558C6.9548 23.6362 6.81417 23.596 6.71373 23.4955C6.61328 23.375 6.59319 23.2344 6.67355 23.1741C6.75391 23.0938 6.89453 23.1339 6.99498 23.2344C7.09542 23.3549 7.11551 23.4955 7.03516 23.5558ZM7.63784 24.4598C7.55748 24.5201 7.39676 24.4598 7.29632 24.3192C7.19587 24.1786 7.19587 24.0179 7.29632 23.9576C7.39676 23.8772 7.55748 23.9375 7.63784 24.0781C7.73828 24.2188 7.73828 24.3795 7.63784 24.4598ZM8.48159 25.3036C8.40123 25.404 8.22042 25.3839 8.0798 25.2433C7.93917 25.1228 7.899 24.942 7.99944 24.8616C8.0798 24.7612 8.2606 24.7812 8.40123 24.9219C8.52176 25.0424 8.56194 25.2232 8.48159 25.3036ZM9.62667 25.8058C9.5865 25.9263 9.40569 25.9866 9.24498 25.9263C9.06417 25.8862 8.94364 25.7455 8.98382 25.625C9.024 25.5045 9.2048 25.4442 9.36551 25.4844C9.54632 25.5446 9.66685 25.6853 9.62667 25.8058ZM10.8923 25.9062C10.8923 26.0268 10.7517 26.1272 10.5709 26.1272C10.37 26.1473 10.2294 26.0469 10.2294 25.9062C10.2294 25.7857 10.37 25.6853 10.5508 25.6853C10.7316 25.6652 10.8923 25.7656 10.8923 25.9062ZM12.0575 25.7054C12.0776 25.8259 11.957 25.9464 11.7762 25.9866C11.5954 26.0268 11.4347 25.9464 11.4146 25.8259C11.3945 25.6853 11.5151 25.5647 11.6959 25.5246C11.8767 25.5045 12.0374 25.5848 12.0575 25.7054Z" fill="#828282"/>
</svg>
