<svg width="32" height="32" viewBox="0 0 32 32" fill="none" xmlns="http://www.w3.org/2000/svg">
<path d="M21.1378 16.1429C21.1378 18.9754 18.8276 21.2857 15.995 21.2857C13.1624 21.2857 10.8521 18.9754 10.8521 16.1429C10.8521 13.3103 13.1624 11 15.995 11C18.8276 11 21.1378 13.3103 21.1378 16.1429ZM23.9102 16.1429C23.9102 11.7634 20.3744 8.22768 15.995 8.22768C11.6155 8.22768 8.0798 11.7634 8.0798 16.1429C8.0798 20.5223 11.6155 24.058 15.995 24.058C20.3744 24.058 23.9102 20.5223 23.9102 16.1429ZM26.0798 7.90625C26.0798 6.8817 25.2561 6.05803 24.2316 6.05803C23.207 6.05803 22.3834 6.8817 22.3834 7.90625C22.3834 8.9308 23.207 9.75446 24.2316 9.75446C25.2561 9.75446 26.0798 8.9308 26.0798 7.90625ZM15.995 3.48661C18.245 3.48661 23.0664 3.3058 25.0954 4.10937C25.7985 4.39062 26.3209 4.73214 26.8633 5.27455C27.4057 5.81696 27.7472 6.33928 28.0285 7.04241C28.832 9.07143 28.6512 13.8929 28.6512 16.1429C28.6512 18.3929 28.832 23.2143 28.0285 25.2433C27.7472 25.9464 27.4057 26.4688 26.8633 27.0112C26.3209 27.5536 25.7985 27.8951 25.0954 28.1763C23.0664 28.9799 18.245 28.7991 15.995 28.7991C13.745 28.7991 8.92355 28.9799 6.89453 28.1763C6.19141 27.8951 5.66909 27.5536 5.12667 27.0112C4.58426 26.4688 4.24275 25.9464 3.9615 25.2433C3.15792 23.2143 3.33873 18.3929 3.33873 16.1429C3.33873 13.8929 3.15792 9.07143 3.9615 7.04241C4.24275 6.33928 4.58426 5.81696 5.12667 5.27455C5.66909 4.73214 6.19141 4.39062 6.89453 4.10937C8.92355 3.3058 13.745 3.48661 15.995 3.48661ZM31.4236 16.1429C31.4236 14.0134 31.4436 11.904 31.3231 9.77455C31.2026 7.30357 30.6401 5.11384 28.832 3.3058C27.024 1.49777 24.8343 0.935266 22.3633 0.814732C20.2338 0.694196 18.1244 0.714284 15.995 0.714284C13.8655 0.714284 11.7561 0.694196 9.62667 0.814732C7.15569 0.935266 4.96596 1.49777 3.15792 3.3058C1.34989 5.11384 0.787388 7.30357 0.666853 9.77455C0.546317 11.904 0.566406 14.0134 0.566406 16.1429C0.566406 18.2723 0.546317 20.3817 0.666853 22.5112C0.787388 24.9821 1.34989 27.1719 3.15792 28.9799C4.96596 30.7879 7.15569 31.3504 9.62667 31.471C11.7561 31.5915 13.8655 31.5714 15.995 31.5714C18.1244 31.5714 20.2338 31.5915 22.3633 31.471C24.8343 31.3504 27.024 30.7879 28.832 28.9799C30.6401 27.1719 31.2026 24.9821 31.3231 22.5112C31.4436 20.3817 31.4236 18.2723 31.4236 16.1429Z" fill="#828282"/>
</svg>
