<svg width="32" height="30" viewBox="0 0 32 30" fill="none" xmlns="http://www.w3.org/2000/svg">
<path d="M7.57757 9.69866H0.948103V29.6071H7.57757V9.69866ZM7.99944 3.55134C7.97935 1.60268 6.5731 0.116071 4.30301 0.116071C2.05301 0.116071 0.566406 1.60268 0.566406 3.55134C0.566406 5.45982 1.99275 6.98661 4.22266 6.98661H4.26283C6.5731 6.98661 8.01953 5.45982 7.99944 3.55134ZM31.4236 18.1964C31.4236 12.0893 28.1691 9.23661 23.8097 9.23661C20.2338 9.23661 18.6669 11.2254 17.803 12.5915H17.8432V9.69866H11.2338C11.2338 9.69866 11.3142 11.567 11.2338 29.6071H17.8432V18.4978C17.8432 17.8951 17.9035 17.3125 18.0642 16.8705C18.5463 15.6853 19.6311 14.4598 21.4593 14.4598C23.8499 14.4598 24.8142 16.2879 24.8142 18.9598V29.6071H31.4236V18.1964Z" fill="#828282"/>
</svg>
