<svg width="40" height="24" viewBox="0 0 40 24" fill="none" xmlns="http://www.w3.org/2000/svg">
<path d="M39.228 2.58928C39.228 2.58928 38.9467 1.78571 37.1989 2.0067L31.4132 2.04688C30.9713 1.98661 30.6498 2.16741 30.6498 2.16741C30.6498 2.16741 30.3083 2.34821 30.1476 2.79018C29.2034 5.22098 27.998 7.31027 27.998 7.31027C25.4266 11.6897 24.382 11.9308 23.9601 11.6496C22.9757 11.0268 23.2369 9.1183 23.2369 7.75223C23.2369 3.4933 23.8797 1.72545 21.9713 1.26339C21.3485 1.12277 20.8864 1.02232 19.2592 1.00223C17.19 0.982141 15.4422 1.00223 14.4579 1.48438C13.7949 1.8058 13.2927 2.52902 13.594 2.5692C13.9757 2.62946 14.8396 2.81027 15.3016 3.43303C15.3016 3.43303 15.8039 4.2567 15.8842 6.06473C16.1052 11.067 15.0806 11.6897 15.0806 11.6897C14.2972 12.1116 12.9311 11.4085 10.9222 7.27009C10.9222 7.27009 9.75698 5.22098 8.85296 2.97098C8.69224 2.54911 8.37082 2.32812 8.37082 2.32812C8.37082 2.32812 8.00921 2.04688 7.48689 1.96652L1.98242 2.0067C1.13867 2.0067 0.837333 2.38839 0.837333 2.38839C0.837333 2.38839 0.535993 2.70982 0.817243 3.37277C5.11635 13.4777 10.0181 18.5402 10.0181 18.5402C10.0181 18.5402 14.498 23.221 19.5806 22.8996H21.8909C22.594 22.8393 22.9556 22.4576 22.9556 22.4576C22.9556 22.4576 23.2771 22.096 23.257 21.433C23.2168 18.3393 24.6632 17.8772 24.6632 17.8772C26.0695 17.4353 27.8775 20.8705 29.8061 22.1964C29.8061 22.1964 31.2726 23.2009 32.3775 22.9799L37.5204 22.8996C40.2324 22.8795 38.9467 20.6295 38.9467 20.6295C38.8463 20.4487 38.2034 19.0625 35.1097 16.1897C31.8954 13.1964 32.3172 13.6786 36.2146 8.49554C38.5851 5.34152 39.5293 3.41295 39.228 2.58928Z" fill="#828282"/>
</svg>
