<svg width="50" height="50" viewBox="0 0 50 50" fill="none" xmlns="http://www.w3.org/2000/svg">
<path d="M26.951 38.8897L49.2012 16.6391C49.7163 16.1244 50 15.4374 50 14.7049C50 13.9724 49.7163 13.2854 49.2012 12.7708L47.563 11.1322C46.4956 10.0659 44.7606 10.0659 43.6948 11.1322L25.0104 29.8166L6.30523 11.1115C5.7902 10.5968 5.10362 10.3127 4.37151 10.3127C3.63859 10.3127 2.95201 10.5968 2.43656 11.1115L0.798773 12.7501C0.283737 13.2651 6.43451e-07 13.9517 6.43451e-07 14.6842C6.43451e-07 15.4167 0.283737 16.1037 0.798773 16.6183L23.0693 38.8897C23.586 39.4055 24.2758 39.6889 25.0091 39.6872C25.7453 39.6889 26.4347 39.4055 26.951 38.8897Z" fill="url(#paint0_linear)"/>
<defs>
<linearGradient id="paint0_linear" x1="50" y1="10.3127" x2="49.5486" y2="40.4299" gradientUnits="userSpaceOnUse">
<stop stop-color="#FF8D27"/>
<stop offset="1" stop-color="#8A2DE1"/>
</linearGradient>
</defs>
</svg>
